<?xml version="1.0" standalone="no"?>
<!DOCTYPE svg PUBLIC "-//W3C//DTD SVG 20010904//EN"
 "http://www.w3.org/TR/2001/REC-SVG-20010904/DTD/svg10.dtd">
<svg version="1.0" xmlns="http://www.w3.org/2000/svg"
 width="300.000000pt" height="300.000000pt" viewBox="0 0 300.000000 300.000000"
 preserveAspectRatio="xMidYMid meet">
<metadata>
Created by potrace 1.11, written by Peter Selinger 2001-2013
</metadata>
<g transform="translate(0.000000,300.000000) scale(0.100000,-0.100000)"
fill="#000000" stroke="none">
<path d="M1335 2954 c-63 -7 -222 -43 -284 -64 -546 -184 -922 -636 -1007
-1214 -46 -313 41 -692 222 -970 269 -408 687 -646 1184 -672 313 -16 676 98
935 295 458 349 670 919 551 1486 -16 75 -64 214 -101 293 -202 426 -569 718
-1035 822 -94 21 -364 35 -465 24z"/>
</g>
</svg>
